#!OML:ASF F:\VICON\USERDATA\INSTALL\rory3\rory3.ASF
:FULLY-SPECIFIED
:DEGREES
1059
root 0.922883 15.7704 2.12825 -172.024 -206.166 178.465
lowerback 15.3399 2.49357 -2.95857
upperback 4.57705 2.71705 -4.0306
thorax -3.66433 1.38907 -3.07064
lowerneck 0.227986 -1.14887 -11.6609
upperneck 6.68756 -2.27816 17.2347
head 2.21081 -0.988383 7.21477
rclavicle -2.38542e-015 -2.70347e-014
rhumerus 4.28904 -19.0982 -22.5675
rradius 113.436
rwrist -9.42513
rhand -20.5923 4.05375
rfingers 7.12502
rthumb 5.768 -25.8477
lclavicle -2.38542e-015 -2.70347e-014
lhumerus 13.5433 -24.902 71.1893
lradius 133.918
lwrist 13.2779
lhand -26.8315 13.7636
lfingers 7.12502
lthumb -0.25735 43.7432
rfemur -1.90947 6.61012 25.0919
rtibia 63.8267
rfoot -11.2587 -1.29067
rtoes -19.1362
lfemur -66.2085 -12.0303 -4.8186
ltibia 48.966
lfoot 12.3479 -18.6768
ltoes -2.66191
1060
root 0.841404 15.8485 2.13033 -171.754 -208.222 178.37
lowerback 16.1731 2.67335 -2.57559
upperback 5.08466 2.99994 -4.1521
thorax -3.53637 1.53762 -3.49614
lowerneck 0.789417 -1.41797 -11.5494
upperneck 5.81496 -2.58113 16.9667
head 1.90745 -1.1832 7.09573
rclavicle -3.89618e-014 -3.65764e-014
rhumerus 8.60023 -21.0569 -20.3594
rradius 107.05
rwrist -9.03269
rhand -20.6183 4.90487
rfingers 7.12502
rthumb 5.74285 -24.9973
lclavicle -3.89618e-014 -3.65764e-014
lhumerus 14.6344 -24.5892 70.133
lradius 133.828
lwrist 13.4317
lhand -26.8814 13.9287
lfingers 7.12502
lthumb -0.305549 43.9083
rfemur -3.13999 6.40522 25.6706
rtibia 63.7489
rfoot -12.4834 -2.48593
rtoes -24.1686
lfemur -65.8094 -11.3217 -6.12842
ltibia 46.8165
lfoot 14.7668 -19.2579
ltoes -0.973714
1061
root 0.764687 15.9314 2.1377 -171.368 -209.923 178.601
lowerback 17.6912 2.80898 -1.93926
upperback 5.07389 3.18107 -4.8686
thorax -4.26716 1.63272 -4.75614
lowerneck 1.52202 -1.6426 -11.0967
upperneck 5.57069 -2.92296 17.2795
head 1.75988 -1.37088 7.11578
rclavicle -8.18993e-014 2.22639e-014
rhumerus 12.1662 -22.378 -19.1079
rradius 99.2992
rwrist -9.19792
rhand -21.0788 5.94754
rfingers 7.12502
rthumb 5.29829 -23.9662
lclavicle -8.18993e-014 2.22639e-014
lhumerus 15.0121 -24.8342 68.6321
lradius 133.847
lwrist 14.2002
lhand -27.472 14.1727
lfingers 7.12502
lthumb -0.875964 44.1507
rfemur -4.17796 6.27623 25.7536
rtibia 63.5324
rfoot -13.313 -1.24989
rtoes -22.7829
lfemur -65.2183 -10.4313 -7.82181
ltibia 44.82
lfoot 16.9557 -19.484
ltoes 0.689748
1062
root 0.69464 16.01 2.15141 -170.619 -211.422 179.069
lowerback 18.8076 3.04438 -1.64942
upperback 5.0463 3.45832 -5.56779
thorax -4.80196 1.77125 -5.82226
lowerneck 2.12938 -1.96727 -10.2824
upperneck 5.478 -3.38962 17.5385
head 1.6888 -1.60606 7.0538
rclavicle -6.52014e-014 3.33958e-014
rhumerus 15.5911 -23.5317 -17.7181
rradius 90.4367
rwrist -9.80245
rhand -21.4393 5.69932
rfingers 7.12502
rthumb 4.95016 -24.2229
lclavicle -6.52014e-014 3.33958e-014
lhumerus 14.9339 -25.3649 67.3715
lradius 134.431
lwrist 15.0711
lhand -27.991 14.3149
lfingers 7.12502
lthumb -1.3772 44.2902
rfemur -5.34708 6.05003 25.423
rtibia 63.2344
rfoot -13.826 0.0144312
rtoes -23.3296
lfemur -64.8305 -9.50041 -9.6332
ltibia 43.0741
lfoot 18.46 -19.422
ltoes 1.16238
1063
root 0.629382 16.0842 2.18076 -169.627 -212.99 179.649
lowerback 18.5643 3.49775 -2.56803
upperback 5.64174 3.95718 -5.37862
thorax -4.0657 2.03906 -5.15184
lowerneck 2.26776 -2.43334 -9.84959
upperneck 5.1409 -3.97389 17.2615
head 1.64216 -1.90606 6.87655
rclavicle 2.78299e-014 6.12257e-014
rhumerus 19.6503 -24.9188 -15.424
rradius 80.727
rwrist -10.6019
rhand -21.861 5.0756
rfingers 7.12502
rthumb 4.54297 -24.8557
lclavicle 2.78299e-014 6.12257e-014
lhumerus 14.9337 -25.3725 67.3546
lradius 135.218
lwrist 15.5315
lhand -27.4096 14.4804
lfingers 7.12502
lthumb -0.815653 44.4586
rfemur -6.55774 5.61464 24.959
rtibia 62.8563
rfoot -14.2031 1.25361
rtoes -22.5061
lfemur -64.6569 -8.76761 -11.3607
ltibia 41.7003
lfoot 19.0784 -18.9533
ltoes 0.437267
1064
root 0.574302 16.1564 2.22168 -168.599 -214.676 180.088
lowerback 18.5588 3.75212 -3.08431
upperback 5.9106 4.22825 -5.34175
thorax -3.79362 2.18081 -4.86356
lowerneck 2.25342 -2.93446 -10.003
upperneck 5.27774 -4.69672 18.0109
head 1.80474 -2.24908 7.13072
rclavicle -9.46215e-014 4.29375e-014
rhumerus 22.9386 -25.6237 -13.3637
rradius 70.658
rwrist -11.331
rhand -22.1271 5.54342
rfingers 7.12502
rthumb 4.28601 -24.3932
lclavicle -9.46215e-014 4.29375e-014
lhumerus 14.3696 -25.5795 67.3285
lradius 135.921
lwrist 15.9295
lhand -26.0219 14.6021
lfingers 7.12502
lthumb 0.524638 44.5812
rfemur -7.58314 5.02869 24.6508
rtibia 62.3315
rfoot -14.5977 2.15999
rtoes -20.9511
lfemur -64.6355 -8.44027 -12.4711
ltibia 40.7952
lfoot 18.643 -17.4053
ltoes -0.241111
1065
root 0.539778 16.2196 2.27065 -167.445 -216.417 180.374
lowerback 18.2843 3.79804 -3.37121
upperback 5.99223 4.27475 -5.22213
thorax -3.58969 2.20593 -4.55589
lowerneck 2.58163 -3.22869 -10.6203
upperneck 5.31184 -5.1729 19.2307
head 1.87034 -2.49024 7.63517
rclavicle 7.79236e-014 -1.36764e-013
rhumerus 26.2755 -25.7353 -11.6965
rradius 60.3133
rwrist -10.7528
rhand -22.379 6.42113
rfingers 7.12502
rthumb 4.04279 -23.5203
lclavicle 7.79236e-014 -1.36764e-013
lhumerus 13.3995 -25.8574 67.6242
lradius 136.685
lwrist 15.9317
lhand -24.8894 14.6166
lfingers 7.12502
lthumb 1.61835 44.5903
rfemur -8.49508 4.35779 24.4521
rtibia 61.6592
rfoot -15.1828 2.50391
rtoes -19.931
lfemur -64.8769 -8.62704 -12.7854
ltibia 40.3763
lfoot 17.0792 -14.7573
ltoes -0.402319
1066
root 0.518238 16.2662 2.32403 -166.394 -218.219 180.493
lowerback 17.7772 3.74966 -3.63296
upperback 6.12824 4.22896 -4.98193
thorax -3.21908 2.18336 -4.09332
lowerneck 2.9143 -3.59505 -10.9166
upperneck 4.9507 -5.67812 19.9463
head 1.81605 -2.76414 7.91762
rclavicle 1.09332e-013 -3.65764e-014
rhumerus 30.3759 -25.8975 -10.8849
rradius 49.4511
rwrist -8.01572
rhand -22.6663 6.87184
rfingers 7.12502
rthumb 3.76538 -23.0746
lclavicle 1.09332e-013 -3.65764e-014
lhumerus 12.7919 -26.2133 68.0596
lradius 137.263
lwrist 15.613
lhand -24.6188 14.349
lfingers 7.12502
lthumb 1.87973 44.3205
rfemur -9.1888 3.60104 24.4394
rtibia 60.8516
rfoot -15.9653 2.46178
rtoes -19.2397
lfemur -65.2654 -9.15835 -12.537
ltibia 40.4178
lfoot 14.8464 -12.5216
ltoes -1.19536
1067
root 0.497525 16.2908 2.37158 -165.762 -219.97 180.24
lowerback 17.5691 3.91521 -3.26001
upperback 6.1299 4.52852 -5.00224
thorax -3.06629 2.33803 -4.36694
lowerneck 3.42896 -4.10286 -10.4797
upperneck 4.63855 -6.37052 20.9878
head 1.76757 -3.11955 8.1796
rclavicle -6.87795e-014 -2.46493e-014
rhumerus 32.8363 -26.1364 -9.94254
rradius 39.3178
rwrist -4.3252
rhand -23.4029 6.64494
rfingers 7.12502
rthumb 3.05405 -23.3129
lclavicle -6.87795e-014 -2.46493e-014
lhumerus 12.8659 -27.684 68.1298
lradius 137.579
lwrist 15.4511
lhand -25.1849 14.1546
lfingers 7.12502
lthumb 1.33299 44.1302
rfemur -9.56288 2.91746 24.7755
rtibia 59.9262
rfoot -16.8443 2.25335
rtoes -18.4377
lfemur -65.7096 -9.68459 -11.8199
ltibia 40.8198
lfoot 12.6803 -11.2325
ltoes -3.02214
1068
root 0.479821 16.3048 2.41912 -165.422 -221.641 179.773
lowerback 17.4938 3.92207 -3.02869
upperback 6.13811 4.59483 -4.70123
thorax -3.02485 2.36933 -4.18087
lowerneck 3.68551 -4.41325 -10.6945
upperneck 4.5023 -6.81801 21.8296
head 1.7933 -3.35269 8.49545
rclavicle -2.34566e-014 5.00937e-014
rhumerus 35.2962 -26.5175 -9.43174
rradius 31.007
rwrist 0.293267
rhand -21.1931 4.41461
rfingers 7.12502
rthumb 5.18787 -25.5019
lclavicle -2.34566e-014 5.00937e-014
lhumerus 12.4358 -28.5784 68.6531
lradius 138.031
lwrist 15.0666
lhand -25.4031 14.1867
lfingers 7.12502
lthumb 1.12229 44.1635
rfemur -9.61567 2.29178 25.2718
rtibia 58.8572
rfoot -17.7145 1.71103
rtoes -18.0517
lfemur -66.2536 -10.0065 -11.0519
ltibia 41.4928
lfoot 11.595 -11.7669
ltoes -2.22329
1069
root 0.463678 16.3211 2.47743 -165.266 -223.407 179.366
lowerback 17.5297 3.76797 -2.96557
upperback 6.29875 4.43215 -4.30366
thorax -2.91005 2.28744 -3.75483
lowerneck 3.4618 -4.69628 -10.9749
upperneck 4.43964 -7.21623 22.4523
head 1.91617 -3.53778 8.73736
rclavicle 2.62396e-014 -2.06736e-014
rhumerus 37.7858 -27.8306 -10.3544
rradius 24.8213
rwrist 6.26909
rhand -22.0053 5.58374
rfingers 7.12502
rthumb 4.40369 -24.3505
lclavicle 2.62396e-014 -2.06736e-014
lhumerus 11.9864 -29.0363 69.0766
lradius 138.537
lwrist 14.2004
lhand -25.4858 13.9873
lfingers 7.12502
lthumb 1.04234 43.9645
rfemur -9.21223 1.61511 25.7818
rtibia 57.6134
rfoot -18.5811 0.946685
rtoes -17.9349
lfemur -66.8804 -10.1115 -10.7559
ltibia 42.4405
lfoot 11.4153 -12.2804
ltoes -1.07528
1070
root 0.444647 16.3305 2.54416 -165.268 -225.225 178.99
lowerback 17.8321 3.54999 -2.87493
upperback 6.3996 4.1696 -3.99562
thorax -2.99028 2.15737 -3.44404
lowerneck 3.16958 -4.91347 -11.2808
upperneck 4.4259 -7.53181 23.1669
head 2.059 -3.67407 9.01736
rclavicle 8.34896e-015 2.38542e-015
rhumerus 41.1929 -31.5327 -14.9281
rradius 20.8461
rwrist 14.5454
rhand -19.2315 5.74894
rfingers 7.12502
rthumb 7.08172 -24.1126
lclavicle 8.34896e-015 2.38542e-015
lhumerus 11.5321 -29.5731 69.3155
lradius 138.864
lwrist 12.969
lhand -26.0938 13.2051
lfingers 7.12502
lthumb 0.455168 43.1844
rfemur -8.49107 1.13083 26.4015
rtibia 56.246
rfoot -19.3899 -0.142565
rtoes -17.9635
lfemur -67.5615 -9.95038 -10.914
ltibia 43.6753
lfoot 11.2961 -12.6277
ltoes -0.159496
1071
root 0.435388 16.3247 2.61836 -165.355 -226.893 178.457
lowerback 17.9309 3.15684 -2.93993
upperback 6.52997 3.67188 -3.52272
thorax -2.95872 1.90721 -2.80609
lowerneck 2.47072 -4.88533 -12.3704
upperneck 4.57747 -7.54232 23.9442
head 2.30032 -3.64295 9.46853
rclavicle 6.63941e-014 -4.13472e-014
rhumerus 49.2897 -38.0784 -26.6448
rradius 18.1695
rwrist 25.8451
rhand -17.9668 6.19506
rfingers 7.12502
rthumb 8.30238 -23.6218
lclavicle 6.63941e-014 -4.13472e-014
lhumerus 10.9259 -29.3457 69.6874
lradius 139.071
lwrist 11.7578
lhand -26.8415 12.2151
lfingers 7.12502
lthumb -0.266979 42.1946
rfemur -7.70607 1.09699 27.185
rtibia 54.8049
rfoot -20.1747 -1.59783
rtoes -17.9962
lfemur -68.265 -9.50313 -11.1651
ltibia 45.1582
lfoot 10.3841 -12.779
ltoes -0.865904
1072
root 0.436172 16.308 2.69481 -165.587 -228.372 177.705
lowerback 17.8802 3.00734 -2.64834
upperback 6.52781 3.53774 -3.39387
thorax -2.9309 1.8437 -2.80295
lowerneck 2.36294 -5.00771 -12.5338
upperneck 4.35225 -7.70393 24.9044
head 2.33403 -3.71368 9.82859
rclavicle -3.77691e-014 -1.90833e-014
rhumerus 59.3874 -44.0369 -41.9755
rradius 16.8005
rwrist 34.7085
rhand -16.9911 6.88687
rfingers 7.12502
rthumb 9.24392 -22.8905
lclavicle -3.77691e-014 -1.90833e-014
lhumerus 10.7175 -29.8509 69.5463
lradius 139.342
lwrist 11.2022
lhand -27.1774 11.6661
lfingers 7.12502
lthumb -0.59141 41.645
rfemur -6.92451 0.667883 27.8025
rtibia 53.3421
rfoot -20.9136 -2.59259
rtoes -17.8182
lfemur -68.9359 -8.89594 -11.2927
ltibia 46.7934
lfoot 9.02629 -12.7425
ltoes -1.65231
